<?xml version="1.0" encoding="UTF-8" standalone="no"?>
<!-- Created with Inkscape (http://www.inkscape.org/) -->

<svg
   xmlns:dc="http://purl.org/dc/elements/1.1/"
   xmlns:cc="http://creativecommons.org/ns#"
   xmlns:rdf="http://www.w3.org/1999/02/22-rdf-syntax-ns#"
   xmlns:svg="http://www.w3.org/2000/svg"
   xmlns="http://www.w3.org/2000/svg"
   xmlns:xlink="http://www.w3.org/1999/xlink"
   xmlns:sodipodi="http://sodipodi.sourceforge.net/DTD/sodipodi-0.dtd"
   xmlns:inkscape="http://www.inkscape.org/namespaces/inkscape"
   width="400"
   height="400"
   viewBox="0 0 400 400.00001"
   id="svg4833"
   version="1.1"
   inkscape:version="0.91 r13725"
   sodipodi:docname="saphar-logo.svg">
  <defs
     id="defs4835" />
  <sodipodi:namedview
     id="base"
     pagecolor="#ffffff"
     bordercolor="#666666"
     borderopacity="1.0"
     inkscape:pageopacity="0.0"
     inkscape:pageshadow="2"
     inkscape:zoom="1.979899"
     inkscape:cx="84.142125"
     inkscape:cy="192.88012"
     inkscape:document-units="px"
     inkscape:current-layer="layer4"
     showgrid="false"
     units="px"
     showguides="false"
     inkscape:guide-bbox="true"
     inkscape:window-width="1680"
     inkscape:window-height="1022"
     inkscape:window-x="0"
     inkscape:window-y="0"
     inkscape:window-maximized="1"
     inkscape:snap-text-baseline="true">
    <sodipodi:guide
       position="200.0102,233.34524"
       orientation="1,0"
       id="guide5495" />
    <sodipodi:guide
       position="200.0102,200.01021"
       orientation="0,1"
       id="guide5497" />
  </sodipodi:namedview>
  <metadata
     id="metadata4838">
    <rdf:RDF>
      <cc:Work
         rdf:about="">
        <dc:format>image/svg+xml</dc:format>
        <dc:type
           rdf:resource="http://purl.org/dc/dcmitype/StillImage" />
        <dc:title />
      </cc:Work>
    </rdf:RDF>
  </metadata>
  <g
     inkscape:label="LOGO"
     inkscape:groupmode="layer"
     id="layer1"
     transform="translate(0,-652.36216)"
     style="display:inline">
    <g
       inkscape:groupmode="layer"
       id="layer2"
       inkscape:label="Body"
       style="display:inline">
      <use
         xlink:href="#g12646"
         id="use12656"
         x="0"
         y="0"
         width="100%"
         height="100%"
         transform="translate(-1.4285714,655.71429)" />
      <g
         inkscape:groupmode="layer"
         id="layer5"
         inkscape:label="Background"
         style="display:inline">
        <g
           style="display:inline"
           id="Background"
           inkscape:label="#background"
           transform="translate(2.0203051,652.55854)">
          <circle
             r="189.64285"
             cy="853.29071"
             cx="199.78571"
             id="path4843"
             style="opacity:1;fill:#7dc8a2;fill-opacity:1;stroke:none;stroke-opacity:1"
             transform="translate(0,-652.36216)" />
        </g>
      </g>
    </g>
    <g
       inkscape:groupmode="layer"
       id="layer6"
       inkscape:label="Lock"
       style="display:inline">
      <g
         inkscape:groupmode="layer"
         id="layer11"
         inkscape:label="Lock-Top"
         sodipodi:insensitive="true">
        <ellipse
           style="display:inline;opacity:1;fill:#764d80;fill-opacity:1;stroke:#764d80;stroke-width:116.10757446;stroke-linejoin:round;stroke-miterlimit:4;stroke-dasharray:none;stroke-opacity:1"
           id="path5507"
           cx="201.46452"
           cy="806.78937"
           rx="18.358934"
           ry="50.178738" />
      </g>
      <g
         inkscape:groupmode="layer"
         id="layer10"
         inkscape:label="Lock-Background"
         sodipodi:insensitive="true">
        <ellipse
           style="display:inline;opacity:1;fill:#764d80;fill-opacity:1;stroke:#7dc8a2;stroke-width:66.49796295;stroke-linejoin:round;stroke-miterlimit:4;stroke-dasharray:none;stroke-opacity:1"
           id="path5507-0"
           cx="201.2729"
           cy="813.59906"
           rx="5.5898533"
           ry="44.733261" />
      </g>
      <g
         inkscape:groupmode="layer"
         id="layer9"
         inkscape:label="Lock-Body"
         sodipodi:insensitive="true">
        <rect
           style="display:inline;opacity:1;fill:#764d80;fill-opacity:1;stroke:#764d80;stroke-width:45.83467102;stroke-linejoin:round;stroke-miterlimit:4;stroke-dasharray:none;stroke-opacity:1"
           id="rect5493"
           width="152.05623"
           height="133.36334"
           x="127.24226"
           y="835.56714" />
      </g>
    </g>
    <g
       inkscape:groupmode="layer"
       id="layer4"
       inkscape:label="Saphar-Hebrew"
       style="display:inline">
      <g
         style="font-style:normal;font-weight:normal;font-size:40px;line-height:125%;font-family:Sans;letter-spacing:0px;word-spacing:0px;display:inline;fill:#7dc8a2;fill-opacity:1;stroke:none;stroke-width:1px;stroke-linecap:butt;stroke-linejoin:miter;stroke-opacity:1"
         id="SapharHebrew">
        <path
           d="m 173.291,956.12256 q -1.75781,1.44531 -2.63672,3.61328 -0.60547,1.54297 -0.60547,2.79297 0,3.00781 1.81641,5.07812 1.89453,2.16797 4.74609,2.16797 l 4.08203,0 q 3.16407,0 5.3125,-2.03125 2.16797,-2.05078 2.16797,-4.98047 0,-3.4375 -1.44531,-4.9414 -1.62109,-1.69922 -5.64453,-1.69922 l -7.79297,0 z m 16.11328,6.64062 q 0,6.09375 -2.48047,9.66797 -2.83203,4.10156 -8.47656,4.10156 -4.98047,0 -7.46094,-3.35937 -2.22656,-2.96875 -2.22656,-8.16406 0,-5.91797 2.96875,-8.88672 l -0.95703,0 q -1.54297,0 -2.14844,-1.05469 -0.54687,-0.97656 -0.54687,-3.33984 0,-3.92578 1.13281,-3.92578 0.19531,0 0.54687,0.83984 0.3711,0.83984 1.40625,0.83984 l 9.19922,0 q 4.45313,0 6.77735,3.47657 2.26562,3.39843 2.26562,9.80468 z"
           style="font-style:normal;font-variant:normal;font-weight:normal;font-stretch:normal;font-family:'Ezra SIL SR';-inkscape-font-specification:'Ezra SIL SR';text-align:center;text-anchor:middle;fill:#7dc8a2;fill-opacity:1"
           id="path8103" />
        <path
           d="m 153.99413,962.45068 q 0,1.26953 -0.89844,2.05078 -0.76172,0.66407 -1.69922,0.66407 l -5.3125,0 q -1.07422,0 -1.67969,0.83984 -0.60547,0.83984 -0.76172,0.83984 -0.33203,0 -0.33203,-0.39062 0,-0.21484 0.25391,-1.34766 0.27344,-1.13281 0.27344,-2.1875 0,-0.39062 -0.11719,-1.28906 -0.11719,-0.89844 -0.11719,-1.50391 0,-2.03125 2.63672,-4.0039 -1.50391,-0.0195 -2.08984,-1.09375 -0.50782,-0.95703 -0.50782,-3.30078 0,-3.92578 1.11328,-3.92578 0.23438,0 0.56641,0.83984 0.35156,0.83984 1.38672,0.83984 l 9.04297,0 q 5.03906,0 6.97265,3.04688 1.79688,2.83203 1.79688,10 l 0,7.36328 -2.16797,6.11328 -20,0 1.71875,-6.64062 18.92578,0 0,-5.3125 q 0,-4.47266 -1.1914,-5.91797 -1.67969,-2.01172 -7.28516,-2.01172 l -6.79688,0 q -1.85546,1.71875 -1.85546,2.67578 0,0.70312 0.70312,0.87891 0.29297,0.0977 1.26953,0.0977 0.3711,0 1.42578,-0.0586 1.07422,-0.0781 2.12891,-0.0781 0.95703,0 1.71875,0.72266 0.87891,0.80078 0.87891,2.08984 z"
           style="font-style:normal;font-variant:normal;font-weight:normal;font-stretch:normal;font-family:'Ezra SIL SR';-inkscape-font-specification:'Ezra SIL SR';text-align:center;text-anchor:middle;fill:#7dc8a2;fill-opacity:1"
           id="path8105" />
        <path
           d="m 138.21288,972.80225 q 0,0.44921 -1.11329,1.83593 -1.11328,1.36719 -1.40625,1.36719 -0.48828,0 -0.48828,-0.83984 0,-0.52735 0.66407,-7.69532 0.66406,-7.1875 0.66406,-9.0625 0,-2.28515 -3.4961,-2.28515 l -13.90625,0 q -1.54296,0 -2.14843,-1.05469 -0.54688,-0.97656 -0.54688,-3.33984 0,-3.92578 1.13281,-3.92578 0.19532,0 0.54688,0.83984 0.37109,0.83984 1.40625,0.83984 l 13.20312,0 q 5.42969,0 5.44922,5.80078 l 0.0391,17.51954 z"
           style="font-style:normal;font-variant:normal;font-weight:normal;font-stretch:normal;font-family:'Ezra SIL SR';-inkscape-font-specification:'Ezra SIL SR';text-align:center;text-anchor:middle;fill:#7dc8a2;fill-opacity:1"
           id="path8107" />
      </g>
    </g>
    <g
       inkscape:groupmode="layer"
       id="layer3"
       inkscape:label="Conversation"
       style="display:inline"
       sodipodi:insensitive="true">
      <g
         inkscape:groupmode="layer"
         id="layer8"
         inkscape:label="Conversation-Left">
        <g
           transform="matrix(0.36509968,0,0,0.49804789,102.27819,818.01433)"
           style="display:inline;fill:#7dc8a2;fill-opacity:1;stroke:#7dc8a2;stroke-width:1.00078988;stroke-linejoin:miter;stroke-miterlimit:10;stroke-dasharray:none;stroke-opacity:1"
           id="convo1">
          <title
             id="title8230">Circle Balloon</title>
          <ellipse
             id="ellipse8232"
             style="stroke:none"
             ry="70"
             rx="125"
             cy="125"
             cx="205" />
          <path
             inkscape:connector-curvature="0"
             id="path8234"
             style="stroke:none"
             d="m 110,166 c 11,21 -10,30 -22,43 32,-3 59,-7 70,-26" />
          <ellipse
             id="ellipse8236"
             style="fill:#eeeeee;stroke-width:3.5"
             ry="70"
             rx="125"
             cy="120"
             cx="200" />
          <path
             inkscape:connector-curvature="0"
             id="path8238"
             style="fill:#eeeeee;stroke-width:3.5"
             d="m 106,162 c 11,21 -10,30 -22,43 32,-3 59,-7 70,-26" />
          <ellipse
             id="ellipse8240"
             style="fill:#ffffff;stroke:none"
             ry="63"
             rx="117"
             cy="117"
             cx="197" />
          <path
             inkscape:connector-curvature="0"
             id="path8242"
             style="fill:#ffffff;stroke:none"
             d="m 103,149 c 14,25 9,34 -6,47 30,-3 50,-10 58,-31" />
        </g>
      </g>
      <g
         inkscape:groupmode="layer"
         id="layer7"
         inkscape:label="Conversation-right">
        <g
           transform="matrix(-0.36509968,0,0,0.49804789,304.89372,854.70661)"
           style="display:inline;fill:#7dc8a2;fill-opacity:1;stroke:#7dc8a2;stroke-width:1.00078988;stroke-linejoin:miter;stroke-miterlimit:10;stroke-dasharray:none;stroke-opacity:1"
           id="convo2">
          <title
             id="title8246">Circle Balloon</title>
          <ellipse
             id="ellipse8248"
             style="stroke:none"
             ry="70"
             rx="125"
             cy="125"
             cx="205" />
          <path
             inkscape:connector-curvature="0"
             id="path8250"
             style="stroke:none"
             d="m 110,166 c 11,21 -10,30 -22,43 32,-3 59,-7 70,-26" />
          <ellipse
             id="ellipse8252"
             style="fill:#eeeeee;stroke-width:3.5"
             ry="70"
             rx="125"
             cy="120"
             cx="200" />
          <path
             inkscape:connector-curvature="0"
             id="path8254"
             style="fill:#eeeeee;stroke-width:3.5"
             d="m 106,162 c 11,21 -10,30 -22,43 32,-3 59,-7 70,-26" />
          <ellipse
             id="ellipse8256"
             style="fill:#ffffff;stroke:none"
             ry="63"
             rx="117"
             cy="117"
             cx="197" />
          <path
             inkscape:connector-curvature="0"
             id="path8258"
             style="fill:#ffffff;stroke:none"
             d="m 103,149 c 14,25 9,34 -6,47 30,-3 50,-10 58,-31" />
        </g>
      </g>
    </g>
  </g>
  <style
     id="style5442"
     type="text/css">
	.st0{fill:#7DC8A2;}
	.st1{fill:#AFDBC5;}
	.st2{fill:#764D80;}
</style>
</svg>
